<?xml version="1.0" encoding="UTF-8"?>
<svg id="Layer_1" xmlns="http://www.w3.org/2000/svg" version="1.1" viewBox="0 0 855.1 211.4">
  <!-- Generator: Adobe Illustrator 30.2.1, SVG Export Plug-In . SVG Version: 2.1.1 Build 1)  -->
  <defs>
    <style>
      .st0 {
        fill: #010101;
      }

      .st1 {
        fill: #106b94;
      }
    </style>
  </defs>
  <g>
    <path class="st1" d="M62.5,110.8c-4.5-2.3-8.2-5.9-11-10.7-2.9-4.8-4.3-10.8-4.3-17.9s1.3-11.8,4-16.5c2.6-4.7,6.2-8.2,10.8-10.7,4.6-2.4,9.6-3.7,15.2-3.7s9.2.6,12.7,1.8c3.5,1.2,6.2,2.8,7.9,4.9,1.8,2,2.6,4.3,2.6,6.7s-.8,3.5-2.5,5.1c-1.6,1.6-3.5,2.3-5.6,2.3s-3.7-.4-4.7-1.3c-1.1-.9-1.8-2-2.2-3.3-.4-1.3-.8-3.1-1.1-5.2-.5-3.2-1.2-5.6-2.1-7.1-.9-1.6-2.7-2.3-5.3-2.3s-6.2,2.1-7.9,6.2c-1.8,4.1-2.6,10.7-2.6,19.7s1.5,15.1,4.4,19.3c2.9,4.2,6.9,6.2,11.8,6.2s7.8-1.2,11-3.6c3.2-2.4,5.5-5.7,6.8-9.9l1.6.4c-1.6,7.6-4.6,13.4-9.1,17.3-4.5,4-9.9,5.9-16.2,5.9s-9.7-1.2-14.1-3.5Z"/>
    <path class="st1" d="M122.2,110.3c-4.5-2.6-8-6.2-10.3-10.8-2.4-4.6-3.5-9.7-3.5-15.3s1.2-11.8,3.7-16.8c2.4-5,6-8.9,10.7-11.8,4.7-2.9,10.3-4.3,16.9-4.3s11.3,1.3,15.8,3.8c4.5,2.5,7.9,6.1,10.3,10.7,2.4,4.6,3.6,10,3.6,16.2s-1.2,11.6-3.7,16.5c-2.5,4.9-6.1,8.8-10.7,11.6-4.7,2.8-10.2,4.3-16.5,4.3s-11.7-1.3-16.2-4ZM130.2,105.6c1.8,4.8,4.7,7.1,8.7,7.1s6.8-2.3,8.6-6.8c1.8-4.6,2.7-11.9,2.7-22.1s-.9-18.8-2.6-23.7c-1.8-4.9-4.6-7.4-8.4-7.4s-7,2.4-8.9,7.1c-1.8,4.7-2.8,12.3-2.8,22.8s.9,18.2,2.7,23Z"/>
    <path class="st1" d="M211.3,60.9c-4,0-7.9,2-11.6,6.1v38.5c0,1.9.7,3.4,2,4.4,1.4,1,3.6,1.6,6.6,1.7v1.4c-5.1-.2-10.9-.2-17.4-.2s-12.1,0-17.4.2v-1.4c5.5-.2,8.3-2,8.3-5.4v-46.5h-8.3v-1.3c2.2-.2,6-.8,11.4-2,5.4-1.2,9.9-2.3,13.5-3.4l1.1.6-.2,11.5c2.9-4.4,6.3-7.8,10.2-10.2,3.9-2.4,7.7-3.6,11.4-3.6s5.8.6,8.5,1.8c2.7,1.2,4.9,3.1,6.7,5.7,1.8,2.6,2.6,5.8,2.6,9.6v37c0,1.9.7,3.4,2,4.4,1.3,1,3.5,1.6,6.5,1.7v1.4c-5.1-.2-10.9-.2-17.4-.2s-12.1,0-17.4.2v-1.4c5.5-.2,8.3-2,8.3-5.4v-35c0-6.9-3.1-10.3-9.3-10.3Z"/>
    <path class="st1" d="M249.9,56.7c-1.8-1.1-3.8-1.7-6.2-1.9v-1.2c6.1.3,12,.5,17.9.5s12-.2,20.6-.5v1.2c-3,.2-5.3.6-6.7,1.3s-2.2,1.7-2.2,3.2.2,1.8.7,3l11.1,27.8,9.6-23c1.1-2.7,1.7-4.8,1.7-6.4s-.7-3.4-2.2-4.3c-1.5-.9-3.6-1.4-6.4-1.6v-1.2l3.7.2c4.2.2,6.8.2,7.9.2,2.2,0,4.8-.1,7.7-.4h2.5c0-.1,0,1.1,0,1.1-2.6.2-4.9.9-6.8,2.2-1.9,1.3-3.5,3.4-4.7,6.4l-20.9,49.7h-1.6l-21.6-50.9c-1-2.6-2.4-4.4-4.2-5.5Z"/>
    <path class="st1" d="M322.3,110.3c-4.5-2.6-8-6.2-10.3-10.8-2.4-4.6-3.5-9.7-3.5-15.3s1.2-11.8,3.7-16.8c2.4-5,6-8.9,10.7-11.8,4.7-2.9,10.3-4.3,16.9-4.3s11.3,1.3,15.8,3.8c4.5,2.5,7.9,6.1,10.3,10.7,2.4,4.6,3.6,10,3.6,16.2s-1.2,11.6-3.7,16.5c-2.5,4.9-6.1,8.8-10.7,11.6-4.7,2.8-10.2,4.3-16.5,4.3s-11.7-1.3-16.2-4ZM330.3,105.6c1.8,4.8,4.7,7.1,8.7,7.1s6.8-2.3,8.6-6.8c1.8-4.6,2.7-11.9,2.7-22.1s-.9-18.8-2.6-23.7c-1.8-4.9-4.6-7.4-8.4-7.4s-7,2.4-8.9,7.1c-1.8,4.7-2.8,12.3-2.8,22.8s.9,18.2,2.7,23Z"/>
    <path class="st0" d="M376.9,111.2c-2-2.1-3.1-4.5-3.1-7.3s1-5.2,3.1-7.3,4.4-3.1,7.1-3.1,5.3,1,7.4,3.1c2,2,3.1,4.5,3.1,7.3s-1,5.2-3.1,7.3c-2,2.1-4.5,3.1-7.4,3.1s-5.1-1-7.1-3.1Z"/>
    <path class="st0" d="M406.2,56.9h-4.6v-1.6h4.7c.6-5.3,2.9-10.3,6.7-15,3.8-4.8,8.6-8.6,14.4-11.4,5.8-2.8,11.6-4.3,17.6-4.3s7.1.8,9.6,2.3c2.5,1.6,3.7,3.4,3.7,5.6s-.8,3.9-2.3,5.3c-1.5,1.4-3.5,2.1-5.9,2.1s-3-.4-4.1-1.3c-1-.8-2.2-2.2-3.6-4-1.4-2-2.8-3.5-4.1-4.5-1.3-1-2.9-1.5-4.9-1.5s-4.7,1.7-6.5,5.2c-1.8,3.4-2.7,9.4-2.7,17.9v3.5h12.6c6,0,11.7-.3,17.1-.8,5.4-.5,8.8-1,10.1-1.4l1.1.6v51.9c0,1.9.7,3.4,2,4.4,1.4,1,3.6,1.6,6.6,1.7v1.4c-5.1-.2-10.9-.2-17.4-.2s-12.1,0-17.4.2v-1.4c5.5-.2,8.3-2,8.3-5.4v-49.1h-23c0-.1,0,48.4,0,48.4,0,2,.8,3.5,2.4,4.4,1.6,1,4.5,1.5,8.6,1.7v1.4c-6.2-.2-12.6-.2-19.2-.2s-12.7,0-18.1.2v-1.4c2.8-.2,4.9-.7,6.2-1.5s2-2.1,2-3.9v-49.4Z"/>
    <path class="st0" d="M513.2,60.9c-4,0-7.9,2-11.6,6.1v38.5c0,1.9.7,3.4,2,4.4,1.4,1,3.6,1.6,6.6,1.7v1.4c-5.1-.2-10.9-.2-17.4-.2s-12.1,0-17.4.2v-1.4c5.5-.2,8.3-2,8.3-5.4v-46.5h-8.3v-1.3c2.2-.2,6-.8,11.4-2,5.4-1.2,9.9-2.3,13.5-3.4l1.1.6-.2,11.5c2.9-4.4,6.3-7.8,10.2-10.2,3.9-2.4,7.7-3.6,11.4-3.6s5.8.6,8.5,1.8c2.7,1.2,4.9,3.1,6.7,5.7,1.8,2.6,2.6,5.8,2.6,9.6v37c0,1.9.7,3.4,2,4.4,1.3,1,3.5,1.6,6.5,1.7v1.4c-5.1-.2-10.9-.2-17.4-.2s-12.1,0-17.4.2v-1.4c5.5-.2,8.3-2,8.3-5.4v-35c0-6.9-3.1-10.3-9.4-10.3Z"/>
    <path class="st0" d="M590.7,111.4c-2.4-1.8-4-4.3-4.6-7.7-4.5,7-10.5,10.5-18,10.5s-8.6-1.2-11.1-3.7-3.8-5.7-3.8-9.7.9-6,2.6-8.2c1.8-2.2,5-4.3,9.7-6.2,4.7-1.9,11.5-3.9,20.5-5.9v-6.6c.1-5.2-.1-9.2-.7-12.1-.5-2.9-1.3-4.9-2.4-6-1.1-1.1-2.6-1.7-4.5-1.7-3,0-5.3.9-6.8,2.7-1.5,1.8-2.2,4.1-2.2,6.9s.2,1.8.5,3.4c.3,1.6.5,2.9.5,3.8,0,1.8-.7,3.2-2.1,4.3s-3.2,1.6-5.5,1.6-4.2-.8-5.9-2.3c-1.7-1.5-2.5-3.6-2.5-6.1,0-4.9,2.5-8.8,7.4-11.6,4.9-2.9,11.1-4.3,18.6-4.3s13.2,1.5,17.4,4.6c4.3,3,6.4,7.6,6.3,13.8l-.2,22.9c0,5.5.2,9.1.8,10.8.6,1.7,1.6,2.6,2.9,2.6,1.9,0,3.3-1.8,4.1-5.4l1.7.2c-1.4,8-6,12-13.5,12s-6.7-.9-9.2-2.6ZM573.9,102.7c1.2,1.6,2.8,2.4,4.8,2.4s2.7-.2,3.8-.7c1.1-.5,2.2-1.5,3.2-3v-18.9c-5.1,1.4-8.7,3.3-10.7,5.7-2,2.4-3,5.3-3,8.9s.6,4,1.8,5.6Z"/>
    <path class="st0" d="M652.9,60.9c-4,0-7.9,2-11.6,6.1v38.5c0,1.9.7,3.4,2,4.4,1.4,1,3.6,1.6,6.6,1.7v1.4c-5.1-.2-10.9-.2-17.4-.2s-12.1,0-17.4.2v-1.4c5.5-.2,8.3-2,8.3-5.4v-46.5h-8.3v-1.3c2.2-.2,6-.8,11.4-2,5.4-1.2,9.9-2.3,13.5-3.4l1.1.6-.2,11.5c2.9-4.4,6.3-7.8,10.2-10.2,3.9-2.4,7.7-3.6,11.4-3.6s5.8.6,8.5,1.8c2.7,1.2,4.9,3.1,6.7,5.7,1.8,2.6,2.6,5.8,2.6,9.6v37c0,1.9.7,3.4,2,4.4,1.3,1,3.5,1.6,6.5,1.7v1.4c-5.1-.2-10.9-.2-17.4-.2s-12.1,0-17.4.2v-1.4c5.5-.2,8.3-2,8.3-5.4v-35c0-6.9-3.1-10.3-9.4-10.3Z"/>
    <path class="st0" d="M706.5,110.8c-4.5-2.3-8.1-5.9-11-10.7-2.9-4.8-4.3-10.8-4.3-17.9s1.3-11.8,4-16.5c2.6-4.7,6.2-8.2,10.8-10.7,4.6-2.4,9.6-3.7,15.2-3.7s9.2.6,12.7,1.8,6.2,2.8,7.9,4.9c1.8,2,2.6,4.3,2.6,6.7s-.8,3.5-2.5,5.1c-1.6,1.6-3.5,2.3-5.6,2.3s-3.7-.4-4.7-1.3c-1.1-.9-1.8-2-2.2-3.3-.4-1.3-.8-3.1-1.1-5.2-.5-3.2-1.2-5.6-2.1-7.1-.9-1.6-2.7-2.3-5.3-2.3s-6.2,2.1-7.9,6.2c-1.8,4.1-2.6,10.7-2.6,19.7s1.5,15.1,4.4,19.3c2.9,4.2,6.9,6.2,11.8,6.2s7.8-1.2,11-3.6c3.2-2.4,5.5-5.7,6.8-9.9l1.6.4c-1.6,7.6-4.6,13.4-9.1,17.3-4.5,4-9.9,5.9-16.2,5.9s-9.7-1.2-14.1-3.5Z"/>
    <path class="st0" d="M766.6,110.3c-4.4-2.6-7.9-6.4-10.4-11.3-2.6-4.9-3.8-10.5-3.8-16.9s1.3-11.6,3.8-16.2c2.6-4.7,6.1-8.3,10.7-10.8,4.6-2.6,9.8-3.8,15.6-3.8s13.5,2,18.2,6c4.7,4,7,9.9,7,17.7h-36c0,1-.1,2.5-.1,4.6,0,8.5,1.6,14.6,4.8,18.5,3.2,3.8,7.4,5.8,12.5,5.8s7.8-1.2,11-3.7c3.2-2.4,5.4-5.8,6.7-10l1.6.4c-1.5,7.6-4.8,13.5-9.7,17.6-5,4.2-10.6,6.2-16.9,6.2s-10.3-1.3-14.7-4ZM789.5,73.4c0-7.8-.8-13.2-2.2-16.2-1.4-3-3.4-4.5-6.1-4.5s-5.2,1.6-6.8,4.9c-1.6,3.3-2.5,8.6-2.8,15.8h17.9Z"/>
  </g>
  <g>
    <path class="st0" d="M55.6,143.4v13.8h13.2v1.8h-13.2v13.9h14.6v1.8h-16.8v-33.1h16.8v1.8h-14.6Z"/>
    <path class="st0" d="M85.3,172.5l9.4-23.3h2.3l-10.6,25.6h-2.2l-10.6-25.6h2.3l9.4,23.3Z"/>
    <path class="st0" d="M124.7,162.8h-22.1c0,2.3.6,4.2,1.5,5.8s2.2,2.8,3.7,3.5c1.5.8,3.2,1.2,5.1,1.2s4.6-.6,6.3-1.9c1.7-1.2,2.8-2.9,3.2-5.1h2.2c-.5,2.6-1.8,4.7-3.9,6.3-2.1,1.6-4.7,2.4-7.9,2.4s-4.5-.5-6.4-1.6c-1.9-1.1-3.4-2.6-4.4-4.6-1.1-2-1.6-4.3-1.6-7s.5-5,1.6-7c1.1-2,2.5-3.5,4.4-4.6,1.9-1.1,4-1.6,6.5-1.6s4.6.5,6.4,1.6c1.8,1.1,3.2,2.5,4.1,4.2.9,1.7,1.4,3.6,1.4,5.6s0,2,0,2.5ZM121.5,155.3c-.9-1.6-2.1-2.7-3.7-3.5-1.5-.8-3.2-1.2-5-1.2s-3.5.4-5,1.2-2.8,1.9-3.7,3.5-1.5,3.5-1.5,5.8h20.1c0-2.3-.3-4.2-1.2-5.8Z"/>
    <path class="st0" d="M136.7,150.1c1.6-1,3.6-1.5,6.1-1.5v2.2h-.7c-2.5,0-4.6.7-6.3,2.1-1.7,1.4-2.5,3.8-2.5,7v14.8h-2.1v-25.6h2.1v5.3c.6-1.9,1.7-3.3,3.4-4.3Z"/>
    <path class="st0" d="M167.8,149.1l-14.9,37.7h-2.2l4.8-12-10.8-25.6h2.3l9.6,23.3,9-23.3h2.2Z"/>
    <path class="st0" d="M204.6,166.3h-15.7l-3.2,8.5h-2.3l12.2-32.4h2.4l12.1,32.4h-2.3l-3.2-8.5ZM203.9,164.5l-7.2-19.3-7.2,19.3h14.4Z"/>
    <path class="st0" d="M234.4,151.4c1.9,1.9,2.9,4.6,2.9,8.3v15h-2.1v-14.9c0-3.1-.8-5.4-2.3-7-1.5-1.6-3.6-2.4-6.3-2.4s-5,.9-6.6,2.6-2.5,4.4-2.5,7.8v13.8h-2.1v-25.6h2.1v5.4c.7-1.9,1.9-3.4,3.6-4.4,1.7-1,3.6-1.5,5.8-1.5s5.5.9,7.5,2.8Z"/>
    <path class="st0" d="M246.3,173.3c-1.8-1.3-2.8-3.1-3-5.4h2.2c.2,1.7.9,3,2.3,4,1.4,1,3.2,1.5,5.6,1.5s3.5-.5,4.6-1.5,1.7-2.2,1.7-3.7-.3-1.8-.9-2.5c-.6-.6-1.4-1.1-2.3-1.5-.9-.3-2.2-.7-3.7-1.1-1.9-.5-3.4-1-4.6-1.5-1.2-.5-2.2-1.2-3-2.2-.8-1-1.2-2.3-1.2-3.9s.4-2.3,1.1-3.3,1.7-1.8,3-2.4,2.8-.9,4.4-.9c2.7,0,4.8.7,6.5,2,1.7,1.3,2.5,3.2,2.7,5.5h-2.1c0-1.7-.8-3.1-2-4.2-1.2-1.1-2.9-1.6-5.1-1.6s-3.3.5-4.5,1.4c-1.2.9-1.8,2.1-1.8,3.4s.3,2.2,1,2.9c.7.7,1.5,1.3,2.5,1.7s2.3.8,3.9,1.3c1.8.5,3.2.9,4.3,1.4,1.1.5,2,1.1,2.8,2,.8.9,1.1,2,1.1,3.5s-.4,2.5-1.1,3.6c-.7,1.1-1.7,1.9-3,2.5-1.3.6-2.7.9-4.3.9-2.9,0-5.2-.6-7-1.9Z"/>
    <path class="st0" d="M301.8,149.1l-8.1,25.6h-2l-8.2-22.7-8.2,22.7h-2l-8.1-25.6h2.2l6.9,23.2,8.2-23.2h2l8.2,23.1,6.9-23.1h2.2Z"/>
    <path class="st0" d="M329.4,162.8h-22.1c0,2.3.6,4.2,1.5,5.8s2.2,2.8,3.7,3.5c1.5.8,3.2,1.2,5.1,1.2s4.6-.6,6.3-1.9c1.7-1.2,2.8-2.9,3.2-5.1h2.2c-.5,2.6-1.8,4.7-3.9,6.3-2.1,1.6-4.7,2.4-7.9,2.4s-4.5-.5-6.4-1.6c-1.9-1.1-3.4-2.6-4.4-4.6-1.1-2-1.6-4.3-1.6-7s.5-5,1.6-7c1.1-2,2.5-3.5,4.4-4.6,1.9-1.1,4-1.6,6.5-1.6s4.6.5,6.4,1.6c1.8,1.1,3.2,2.5,4.1,4.2.9,1.7,1.4,3.6,1.4,5.6s0,2,0,2.5ZM326.2,155.3c-.9-1.6-2.1-2.7-3.7-3.5-1.5-.8-3.2-1.2-5-1.2s-3.5.4-5,1.2-2.8,1.9-3.7,3.5-1.5,3.5-1.5,5.8h20.1c0-2.3-.3-4.2-1.2-5.8Z"/>
    <path class="st0" d="M341.4,150.1c1.6-1,3.6-1.5,6.1-1.5v2.2h-.7c-2.5,0-4.6.7-6.3,2.1-1.7,1.4-2.5,3.8-2.5,7v14.8h-2.1v-25.6h2.1v5.3c.6-1.9,1.7-3.3,3.4-4.3Z"/>
    <path class="st0" d="M396.7,142.3v32.4h-2.1v-28l-12.5,28h-1.7l-12.5-28v28h-2.1v-32.4h2.3l13.2,29.6,13.2-29.6h2.2Z"/>
    <path class="st0" d="M404.7,155c1.1-2,2.5-3.5,4.4-4.6,1.9-1.1,4-1.6,6.4-1.6s5,.7,6.9,2,3.2,3,4,5.1v-6.7h2.1v25.6h-2.1v-6.7c-.8,2.1-2.1,3.8-4,5.1-1.9,1.3-4.2,2-6.9,2s-4.5-.5-6.4-1.6c-1.9-1.1-3.3-2.6-4.4-4.6-1.1-2-1.6-4.3-1.6-7s.5-5,1.6-6.9ZM425,156c-.9-1.7-2.2-3-3.8-4-1.6-.9-3.4-1.4-5.4-1.4s-3.9.4-5.5,1.3c-1.6.9-2.8,2.2-3.7,3.9-.9,1.7-1.3,3.7-1.3,6s.4,4.3,1.3,6c.9,1.7,2.1,3,3.7,3.9,1.6.9,3.4,1.4,5.5,1.4s3.8-.5,5.4-1.4c1.6-.9,2.9-2.2,3.8-4,.9-1.7,1.4-3.7,1.4-6s-.5-4.2-1.4-5.9Z"/>
    <path class="st0" d="M449.5,174.8l-11.2-11.8v11.8h-2.1v-34.9h2.1v20.9l11-11.6h3l-12.4,12.7,12.6,12.9h-2.9Z"/>
    <path class="st0" d="M479.8,162.8h-22.1c0,2.3.6,4.2,1.5,5.8s2.2,2.8,3.7,3.5,3.2,1.2,5.1,1.2,4.6-.6,6.3-1.9c1.7-1.2,2.8-2.9,3.2-5.1h2.2c-.5,2.6-1.8,4.7-3.9,6.3s-4.7,2.4-7.9,2.4-4.5-.5-6.4-1.6c-1.9-1.1-3.4-2.6-4.4-4.6-1.1-2-1.6-4.3-1.6-7s.5-5,1.6-7c1.1-2,2.5-3.5,4.4-4.6,1.9-1.1,4-1.6,6.5-1.6s4.6.5,6.4,1.6c1.8,1.1,3.2,2.5,4.1,4.2.9,1.7,1.4,3.6,1.4,5.6s0,2,0,2.5ZM476.6,155.3c-.9-1.6-2.1-2.7-3.7-3.5-1.5-.8-3.2-1.2-5-1.2s-3.5.4-5,1.2c-1.5.8-2.8,1.9-3.7,3.5-1,1.6-1.5,3.5-1.5,5.8h20.1c0-2.3-.3-4.2-1.2-5.8Z"/>
    <path class="st0" d="M487.9,173.3c-1.8-1.3-2.8-3.1-3-5.4h2.2c.2,1.7.9,3,2.3,4,1.4,1,3.2,1.5,5.6,1.5s3.5-.5,4.6-1.5,1.7-2.2,1.7-3.7-.3-1.8-.9-2.5c-.6-.6-1.4-1.1-2.3-1.5s-2.2-.7-3.7-1.1c-1.9-.5-3.4-1-4.6-1.5-1.2-.5-2.2-1.2-3-2.2-.8-1-1.2-2.3-1.2-3.9s.4-2.3,1.1-3.3c.7-1,1.7-1.8,3-2.4s2.8-.9,4.4-.9c2.7,0,4.8.7,6.5,2,1.7,1.3,2.5,3.2,2.7,5.5h-2.1c0-1.7-.8-3.1-2-4.2s-2.9-1.6-5.1-1.6-3.3.5-4.5,1.4c-1.2.9-1.8,2.1-1.8,3.4s.3,2.2,1,2.9,1.5,1.3,2.5,1.7c1,.4,2.3.8,3.9,1.3,1.8.5,3.2.9,4.3,1.4s2,1.1,2.8,2c.8.9,1.1,2,1.1,3.5s-.4,2.5-1.1,3.6-1.7,1.9-3,2.5-2.7.9-4.3.9c-2.9,0-5.2-.6-7-1.9Z"/>
    <path class="st0" d="M543.6,141.6l-10.4,19.7v13.4h-2.1v-13.4l-10.5-19.7h2.4l9.2,17.7,9.1-17.7h2.4Z"/>
    <path class="st0" d="M553.5,173.5c-1.9-1.1-3.4-2.6-4.5-4.6-1.1-2-1.6-4.3-1.6-7s.6-5,1.7-7c1.1-2,2.6-3.5,4.6-4.6,1.9-1.1,4.1-1.6,6.5-1.6s4.5.5,6.5,1.6c1.9,1.1,3.4,2.6,4.5,4.6,1.1,2,1.6,4.3,1.6,7s-.6,5-1.7,7c-1.1,2-2.6,3.5-4.6,4.6-1.9,1.1-4.1,1.6-6.5,1.6s-4.5-.5-6.5-1.6ZM565.2,172c1.6-.8,2.9-2.1,3.9-3.8,1-1.7,1.5-3.8,1.5-6.3s-.5-4.5-1.5-6.2c-1-1.7-2.3-3-3.9-3.8-1.6-.8-3.3-1.3-5.2-1.3s-3.6.4-5.2,1.3c-1.6.8-2.9,2.1-3.8,3.8-1,1.7-1.5,3.8-1.5,6.2s.5,4.6,1.4,6.3,2.2,3,3.8,3.8,3.3,1.3,5.2,1.3,3.6-.4,5.2-1.3Z"/>
    <path class="st0" d="M600.8,149.1v25.6h-2.1v-5.6c-.7,2-1.9,3.4-3.6,4.5-1.7,1-3.6,1.5-5.8,1.5s-5.5-.9-7.5-2.8c-1.9-1.9-2.9-4.6-2.9-8.3v-14.9h2.1v14.8c0,3.1.8,5.4,2.3,7,1.5,1.6,3.6,2.4,6.3,2.4s5-.9,6.6-2.6,2.5-4.4,2.5-7.8v-13.7h2.1Z"/>
    <path class="st0" d="M625.8,174c-1.6-.8-2.9-1.8-3.8-3.1-.9-1.3-1.4-2.7-1.5-4.3h2.2c.3,1.7,1.1,3.3,2.4,4.6,1.4,1.4,3.5,2,6.3,2s3.1-.3,4.3-.9c1.2-.6,2.1-1.4,2.8-2.5s1-2.2,1-3.4-.4-2.9-1.2-3.8c-.8-.9-1.7-1.7-2.9-2.1-1.1-.5-2.7-1-4.6-1.5-2.1-.6-3.9-1.1-5.2-1.7-1.3-.6-2.4-1.4-3.3-2.6-.9-1.2-1.3-2.8-1.3-4.8s.4-3,1.3-4.3c.8-1.3,2-2.3,3.6-3.1,1.5-.8,3.3-1.1,5.3-1.1,2.9,0,5.3.7,7.1,2.2,1.8,1.4,2.9,3.2,3.2,5.3h-2.3c-.2-.8-.6-1.7-1.3-2.6-.6-.9-1.6-1.6-2.7-2.2s-2.6-.9-4.2-.9-4.1.6-5.6,1.8c-1.5,1.2-2.3,2.8-2.3,4.8s.4,2.9,1.2,3.8,1.8,1.7,2.9,2.2c1.1.5,2.7,1,4.6,1.5,2.2.6,3.9,1.2,5.2,1.7,1.3.6,2.4,1.4,3.3,2.6.9,1.2,1.3,2.8,1.3,4.8s-.4,2.9-1.2,4.2c-.8,1.3-1.9,2.4-3.5,3.2-1.5.8-3.4,1.3-5.5,1.3s-4-.4-5.6-1.1Z"/>
    <path class="st0" d="M685.5,151.4c1.9,1.9,2.8,4.6,2.8,8.3v15h-2.1v-14.9c0-3.1-.7-5.4-2.2-7-1.5-1.6-3.5-2.4-6-2.4s-4.8.9-6.4,2.7c-1.6,1.8-2.4,4.5-2.4,7.9v13.6h-2.1v-14.9c0-3.1-.7-5.4-2.2-7-1.5-1.6-3.5-2.4-6-2.4s-4.8.9-6.4,2.7-2.4,4.5-2.4,7.9v13.6h-2.1v-25.6h2.1v5.6c.7-2,1.9-3.5,3.5-4.6,1.6-1,3.5-1.5,5.6-1.5s4.3.6,6,1.8,2.8,3,3.5,5.4c.6-2.4,1.8-4.1,3.5-5.4s3.8-1.8,6.1-1.8,5.3.9,7.2,2.8Z"/>
    <path class="st0" d="M696.1,155c1.1-2,2.5-3.5,4.4-4.6,1.9-1.1,4-1.6,6.4-1.6s5,.7,6.9,2c1.9,1.3,3.2,3,4,5.1v-6.7h2.1v25.6h-2.1v-6.7c-.8,2.1-2.1,3.8-4,5.1-1.9,1.3-4.2,2-6.9,2s-4.5-.5-6.4-1.6c-1.9-1.1-3.3-2.6-4.4-4.6-1.1-2-1.6-4.3-1.6-7s.5-5,1.6-6.9ZM716.3,156c-.9-1.7-2.2-3-3.8-4-1.6-.9-3.4-1.4-5.4-1.4s-3.9.4-5.5,1.3c-1.6.9-2.8,2.2-3.7,3.9s-1.3,3.7-1.3,6,.4,4.3,1.3,6,2.1,3,3.7,3.9,3.4,1.4,5.5,1.4,3.8-.5,5.4-1.4c1.6-.9,2.9-2.2,3.8-4,.9-1.7,1.4-3.7,1.4-6s-.5-4.2-1.4-5.9Z"/>
    <path class="st0" d="M733,150.1c1.6-1,3.7-1.5,6.1-1.5v2.2h-.7c-2.5,0-4.6.7-6.3,2.1-1.7,1.4-2.5,3.8-2.5,7v14.8h-2.1v-25.6h2.1v5.3c.6-1.9,1.7-3.3,3.3-4.3Z"/>
    <path class="st0" d="M747.2,151v16.9c0,1.9.3,3.2,1,3.9.7.7,1.9,1.1,3.7,1.1h2.9v1.9h-3.2c-2.2,0-3.9-.5-4.9-1.6s-1.6-2.8-1.6-5.3v-16.9h-3.9v-1.8h3.9v-6.5h2.1v6.5h7.6v1.8h-7.6Z"/>
    <path class="st0" d="M783.4,162.8h-22.1c0,2.3.6,4.2,1.5,5.8.9,1.6,2.2,2.8,3.7,3.5s3.2,1.2,5,1.2,4.6-.6,6.3-1.9c1.7-1.2,2.8-2.9,3.2-5.1h2.2c-.5,2.6-1.8,4.7-3.9,6.3-2.1,1.6-4.7,2.4-7.9,2.4s-4.5-.5-6.4-1.6c-1.9-1.1-3.4-2.6-4.4-4.6-1.1-2-1.6-4.3-1.6-7s.5-5,1.6-7c1.1-2,2.5-3.5,4.4-4.6,1.9-1.1,4-1.6,6.5-1.6s4.6.5,6.4,1.6c1.8,1.1,3.2,2.5,4.1,4.2.9,1.7,1.4,3.6,1.4,5.6s0,2,0,2.5ZM780.2,155.3c-.9-1.6-2.1-2.7-3.7-3.5s-3.2-1.2-5-1.2-3.5.4-5,1.2c-1.5.8-2.8,1.9-3.7,3.5s-1.5,3.5-1.5,5.8h20.1c0-2.3-.3-4.2-1.2-5.8Z"/>
    <path class="st0" d="M795.4,150.1c1.6-1,3.7-1.5,6.1-1.5v2.2h-.7c-2.5,0-4.6.7-6.3,2.1-1.7,1.4-2.5,3.8-2.5,7v14.8h-2.1v-25.6h2.1v5.3c.6-1.9,1.7-3.3,3.3-4.3Z"/>
  </g>
</svg>