<?xml version="1.0" encoding="UTF-8"?>
<svg id="Layer_1" xmlns="http://www.w3.org/2000/svg" xmlns:xlink="http://www.w3.org/1999/xlink" version="1.1" viewBox="0 0 211.4 211.4">
  <!-- Generator: Adobe Illustrator 30.2.1, SVG Export Plug-In . SVG Version: 2.1.1 Build 1)  -->
  <defs>
    <style>
      .st0 {
        fill: url(#linear-gradient);
      }

      .st1 {
        fill: #fff;
      }
    </style>
    <linearGradient id="linear-gradient" x1="-31.4" y1="9.3" x2="216.2" y2="183.4" gradientUnits="userSpaceOnUse">
      <stop offset=".2" stop-color="#7a5aa4"/>
      <stop offset=".4" stop-color="#695ca1"/>
      <stop offset=".7" stop-color="#3e639b"/>
      <stop offset=".9" stop-color="#106b94"/>
    </linearGradient>
  </defs>
  <rect class="st0" x="0" y="0" width="211.4" height="211.4" rx="48.3" ry="48.3"/>
  <g>
    <path class="st1" d="M140.4,75.7c1.7-.1,2.7-.9,3.5-2.2s.5-2.6,0-3.8l-4.3-4.1-1.4-1.2c-.3-.3-.7-.6-1.1-.8l-.9-.7c-.8-.6-1.6-1.2-2.5-1.7l-2.9-1.7c-1.2-.7-2.5-1.3-3.8-1.9l-1.6-.7c-1.2-.5-4.2-1.5-5.6-1.9l-2.2-.6c-.4-.1-.8-.1-1.3-.2l-1.9-.4-1.6-.2-1.7-.2c-.3,0-.7,0-1,0l-2.3-.2c-1.3-.1-2.8,0-4.1,0s-2.5.8-3.3,1.9c-1.3,1.6-.8,4.4.8,5.6,2.1,1.5,4.3.8,6,.9l2.4.2c1.1,0,2.2.3,3.3.5l1.1.2,1.3.3c.4,0,.8.2,1.1.3l1.6.4c.6.2,1.3.4,1.9.6l1.5.6c.4.1.8.3,1.1.5l3.8,1.8c.7.3,1.3.7,1.9,1.2l3.6,2.4c.4.3.8.6,1.2.9l1.6,1.3,2.9,2.8c.6.5,1.9.8,2.6.7ZM86.3,61.3c0-2.5-2.1-4.6-4.6-4.6s-4.6,2.1-4.6,4.6,2.1,4.6,4.6,4.6,4.6-2.1,4.6-4.6ZM66.9,75.5c0-2.5-2.1-4.6-4.6-4.6s-4.6,2.1-4.6,4.6,2.1,4.6,4.6,4.6,4.6-2.1,4.6-4.6ZM103.1,121.4l.6-.3,2.9-2.9c.2-.2.9-.4,1.2-.5l1.1-.3c.4-.1,1.1,0,1.6.2l5.6,1.9,4.4,1.6,3.1,1.1c.5.2,1.1.2,1.5.1,2-.4,1.8-.8,3.2-2.1s.5-.8.6-1.3c.8-3.6-2-4.9-2.7-5.8l-.6-.9-4.1-4.2-.4-.6-2.5-2.6c-.2-.3-.6-1-.6-1.3-.3-2.9.3-3.6,1.3-6.3l1.8-5.2c.5-1.5,1.1-3,1.5-4.5s0-2.2-.6-2.9c-1.3-1.5-1.8-2-3.6-2.2s-2,.2-2.7.7l-1.5,1.2-4.2,4.1c-.3.3-.7.5-1,.8-1.2,1.2-2.3,2.4-3.6,3.5s-2.6,1.4-3.9,1l-2.1-.7-4.4-1.6-3.9-1.4c-1.5-.5-3.2-1.4-4.6-1.1s-2.6,1-3.3,2.4-.7,3.3.3,4.6l.9,1.2,3.9,4c.3.3.5.7.7.9,1.3,1.3,2.6,2.5,3.8,3.9s1.3,2.4,1.1,3.8-.7,2.1-1,3.2l-1.8,5.2c-.6,1.8-1.3,3.6-1.8,5.5s0,2.2.6,3.1c.9,1.4,2.7,2.3,4.3,2.1s2.3-.9,3.2-1.8l1.1-1.1.6-.3,4.1-4.1ZM159.3,90.5c0-2.5-2-4.6-4.6-4.6s-4.6,2-4.6,4.6,2,4.6,4.6,4.6,4.6-2,4.6-4.6ZM57.7,99.5c0-2.5-2.1-4.6-4.6-4.6s-4.6,2.1-4.6,4.6,2.1,4.6,4.6,4.6,4.6-2.1,4.6-4.6ZM162.3,114.6c.2-.3.3-.6.4-1,.5-1.7.2-2.6-.8-4.1s-4.2-2.3-6.1-.9c-1.3,1-2.1,2.2-2,3.9,0,1,.2,1.9,1,2.6l.8.8c1.4,1.4,5,1.5,6.7-1.3ZM62.7,123c0-2.5-2.1-4.6-4.6-4.6s-4.6,2.1-4.6,4.6,2.1,4.6,4.6,4.6,4.6-2.1,4.6-4.6ZM153.7,136.3c0-2.5-2-4.6-4.6-4.6s-4.6,2-4.6,4.6,2,4.6,4.6,4.6,4.6-2,4.6-4.6ZM108.5,158.7c.7,0,1.5-.3,2-.6s1.2-1,1.5-1.6c.7-1.3.6-2.5,0-3.7s-1.6-1.9-2.4-2.1-.8-.2-1.1-.3c-1.8,0-3.9,0-5.7,0s-.5,0-.9,0l-1.6-.2c-.2,0-.4,0-.6,0l-2.5-.4-1.5-.2c-.3,0-.8-.3-1.2-.4-1.5-.4-2.9-.7-4.4-1.3l-1.3-.5c-.4-.2-.9-.4-1.3-.5l-3.1-1.5c-1.4-.7-3-1.7-4.4-2.7l-2-1.5-1.3-1-1.5-1.4-1-.8c-1.3-.9-3.4-1.1-4.5,0s-1,1-1.4,1.4-.5,2.1-.4,2.8c.3,1.5,1.3,2.6,2.5,3.4s.9.9,1.4,1.3l1.3,1c1.4,1.1,3.2,2.4,4.8,3.3l1.6.9,1.1.6c.8.5,1.6.8,2.5,1.2l2,.9,2.1.8c1.2.4,2.3.8,3.5,1.2l1.8.5c.7.2,1.5.4,2.2.5l1.1.2,1.7.3,1.4.2h.9s1.7.3,1.7.3c.3,0,.9,0,1.3,0h6ZM135.8,152.1c0-2.5-2.1-4.6-4.6-4.6s-4.6,2.1-4.6,4.6,2.1,4.6,4.6,4.6,4.6-2.1,4.6-4.6Z"/>
    <path class="st1" d="M103.1,121.4l-4.1,4.1-.6.3-1.1,1.1c-.9.9-1.8,1.7-3.2,1.8s-3.4-.7-4.3-2.1-.8-2.1-.6-3.1c.5-1.9,1.2-3.6,1.8-5.5l1.8-5.2c.4-1.1.9-2.1,1-3.2s-.2-2.8-1.1-3.8-2.5-2.6-3.8-3.9-.5-.7-.7-.9l-3.9-4-.9-1.2c-1-1.3-1.1-3.3-.3-4.6s1.9-2.1,3.3-2.4,3.1.6,4.6,1.1l3.9,1.4,4.4,1.6,2.1.7c1.3.4,2.8-.1,3.9-1s2.4-2.3,3.6-3.5.7-.5,1-.8l4.2-4.1,1.5-1.2c.6-.5,1.9-.8,2.7-.7,1.8.2,2.3.7,3.6,2.2.6.7.8,2,.6,2.9-.4,1.5-.9,2.9-1.5,4.5l-1.8,5.2c-.9,2.6-1.5,3.4-1.3,6.3,0,.3.4,1.1.6,1.3l2.5,2.6.4.6,4.1,4.2.6.9c.7.9,3.5,2.2,2.7,5.8s-.2,1-.6,1.3c-1.4,1.3-1.2,1.7-3.2,2.1s-1,0-1.5-.1l-3.1-1.1-4.4-1.6-5.6-1.9c-.5-.2-1.1-.3-1.6-.2l-1.1.3c-.3,0-.9.3-1.2.5l-2.9,2.9-.6.3Z"/>
    <path class="st1" d="M140.4,75.7c-.7,0-2-.2-2.6-.7l-2.9-2.8-1.6-1.3c-.4-.3-.8-.6-1.2-.9l-3.6-2.4c-.6-.4-1.3-.8-1.9-1.2l-3.8-1.8c-.3-.2-.8-.3-1.1-.5l-1.5-.6c-.6-.2-1.3-.4-1.9-.6l-1.6-.4c-.3,0-.8-.2-1.1-.3l-1.3-.3-1.1-.2c-1.1-.2-2.2-.4-3.3-.5l-2.4-.2c-1.8-.1-3.9.6-6-.9-1.6-1.1-2.1-3.9-.8-5.6s1.9-1.8,3.3-1.9,2.8-.1,4.1,0l2.3.2c.3,0,.7,0,1,0l1.7.2,1.6.2,1.9.4c.5.1.9.1,1.3.2l2.2.6c1.4.4,4.3,1.4,5.6,1.9l1.6.7c1.3.6,2.6,1.2,3.8,1.9l2.9,1.7c.9.5,1.7,1.1,2.5,1.7l.9.7c.4.3.8.6,1.1.8l1.4,1.2,4.3,4.1c.4,1.3.6,2.7,0,3.8s-1.8,2.1-3.5,2.2Z"/>
    <path class="st1" d="M108.5,158.7h-6c-.4,0-1,0-1.3,0l-1.7-.2h-.9s-1.4-.3-1.4-.3l-1.7-.3-1.1-.2c-.7-.1-1.5-.3-2.2-.5l-1.8-.5c-1.2-.3-2.3-.7-3.5-1.2l-2.1-.8-2-.9c-.8-.4-1.7-.7-2.5-1.2l-1.1-.6-1.6-.9c-1.6-.9-3.4-2.1-4.8-3.3l-1.3-1c-.5-.4-.9-.9-1.4-1.3-1.2-.8-2.2-1.9-2.5-3.4s0-2.3.4-2.8.9-1,1.4-1.4c1.1-1,3.3-.9,4.5,0l1,.8,1.5,1.4,1.3,1,2,1.5c1.4,1,2.9,2,4.4,2.7l3.1,1.5c.4.2.9.4,1.3.5l1.3.5c1.5.6,2.9.9,4.4,1.3s.8.3,1.2.4l1.5.2,2.5.4c.2,0,.4,0,.6,0l1.6.2c.4,0,.6,0,.9,0,1.9-.1,3.9,0,5.7,0s.8.2,1.1.3c.8.1,2.2,1.6,2.4,2.1.5,1.2.6,2.4,0,3.7s-.9,1.1-1.5,1.6-1.3.6-2,.6Z"/>
    <circle class="st1" cx="58.1" cy="123" r="4.6"/>
    <circle class="st1" cx="53.1" cy="99.5" r="4.6"/>
    <circle class="st1" cx="131.2" cy="152.1" r="4.6"/>
    <circle class="st1" cx="149.1" cy="136.3" r="4.6"/>
    <circle class="st1" cx="81.7" cy="61.3" r="4.6"/>
    <circle class="st1" cx="62.3" cy="75.5" r="4.6"/>
    <circle class="st1" cx="154.7" cy="90.5" r="4.6"/>
    <path class="st1" d="M162.3,114.6c-1.7,2.8-5.3,2.7-6.7,1.3l-.8-.8c-.7-.7-.9-1.6-1-2.6-.1-1.7.6-2.9,2-3.9,1.9-1.4,4.9-1,6.1.9s1.2,2.4.8,4.1-.2.7-.4,1Z"/>
  </g>
</svg>