<?xml version="1.0" encoding="UTF-8"?>
<svg id="Layer_1" xmlns="http://www.w3.org/2000/svg" xmlns:xlink="http://www.w3.org/1999/xlink" version="1.1" viewBox="0 0 211.4 211.4">
  <!-- Generator: Adobe Illustrator 30.2.1, SVG Export Plug-In . SVG Version: 2.1.1 Build 1)  -->
  <defs>
    <style>
      .st0 {
        fill: url(#linear-gradient);
      }

      .st1 {
        fill: #fff;
      }
    </style>
    <linearGradient id="linear-gradient" x1="-31.4" y1="9.3" x2="216.2" y2="183.4" gradientUnits="userSpaceOnUse">
      <stop offset=".2" stop-color="#7a5aa4"/>
      <stop offset=".4" stop-color="#695ca1"/>
      <stop offset=".7" stop-color="#3e639b"/>
      <stop offset=".9" stop-color="#106b94"/>
    </linearGradient>
  </defs>
  <rect class="st0" x="0" y="0" width="211.4" height="211.4" rx="48.3" ry="48.3"/>
  <g>
    <path class="st1" d="M40.6,147.8v-10.6l22.7-62.1h-21.5v-11.3h34.6v9.6l-23.1,63.2h23.1v11.3h-35.8Z"/>
    <path class="st1" d="M78.4,147.8l18.8-84.1h10l18.8,84.1h-12l-3.5-18.1h-16.4l-3.5,18.1h-12ZM108.1,118.4l-5.9-30.5h-.2l-5.9,30.5h12Z"/>
    <path class="st1" d="M131.9,147.8V63.7h17.8c6.9,0,12.2,1.9,15.8,5.7,3.6,3.8,5.4,9.1,5.4,16.1v39.3c0,7.9-1.9,13.7-5.7,17.4-3.8,3.7-9.3,5.6-16.5,5.6h-16.8ZM143.9,75v61.4h5.6c3.4,0,5.8-.8,7.2-2.5,1.4-1.7,2.1-4.3,2.1-8v-40.5c0-3.3-.7-5.9-2-7.7-1.3-1.8-3.8-2.7-7.3-2.7h-5.6Z"/>
  </g>
</svg>