<?xml version="1.0" encoding="UTF-8"?>
<svg id="Layer_1" xmlns="http://www.w3.org/2000/svg" xmlns:xlink="http://www.w3.org/1999/xlink" version="1.1" viewBox="0 0 211.4 211.4">
  <!-- Generator: Adobe Illustrator 30.2.1, SVG Export Plug-In . SVG Version: 2.1.1 Build 1)  -->
  <defs>
    <style>
      .st0 {
        fill: url(#linear-gradient);
      }

      .st1 {
        fill: #fff;
      }
    </style>
    <linearGradient id="linear-gradient" x1="-31.4" y1="9.3" x2="216.2" y2="183.4" gradientUnits="userSpaceOnUse">
      <stop offset=".2" stop-color="#7a5aa4"/>
      <stop offset=".4" stop-color="#695ca1"/>
      <stop offset=".7" stop-color="#3e639b"/>
      <stop offset=".9" stop-color="#106b94"/>
    </linearGradient>
  </defs>
  <rect class="st0" x="0" y="0" width="211.4" height="211.4" rx="48.3" ry="48.3"/>
  <g>
    <path class="st1" d="M40.4,135.4v-18.7h44.8v18.7h-44.8ZM75,135.4c0-6.6-1.2-12.4-3.3-17.4-2.2-5.1-5.3-9.3-9.5-12.8-4.1-3.4-9.2-5.9-15.2-7.3l3.4-17.4c8.3,1.9,15.5,5.4,21.6,10.5,6,5.1,10.7,11.4,14.1,19,3.3,7.5,5,16,5.1,25.4h-16.1Z"/>
    <path class="st1" d="M101.7,135.4V53.4h16.1v82h-16.1Z"/>
    <path class="st1" d="M123.3,144.4c3.2-.1,5.7-.5,7.5-1.1,1.8-.6,3-1.5,3.7-2.6.7-1.1,1.1-2.6,1.1-4.3v-49.6h16.1v49.6c0,5.1-1,9.5-3.1,13.3-2.1,3.8-5,6.7-8.8,8.9-3.8,2.2-8.3,3.4-13.5,3.7l-3-17.8ZM143.6,76.5c-2.6,0-4.7-.8-6.4-2.5-1.7-1.7-2.5-3.8-2.5-6.4s.8-4.7,2.5-6.4,3.8-2.5,6.4-2.5,4.8.8,6.4,2.5c1.6,1.7,2.5,3.8,2.5,6.4s-.8,4.7-2.5,6.4c-1.6,1.7-3.8,2.5-6.4,2.5Z"/>
  </g>
</svg>